<svg width="1920" height="1080" viewBox="0 0 1920 1080" xmlns="http://www.w3.org/2000/svg">
  <!-- 배경 그라디언트 -->
  <defs>
    <linearGradient id="heroGradient1" x1="0%" y1="0%" x2="100%" y2="100%">
      <stop offset="0%" style="stop-color:#1e3a8a;stop-opacity:1" />
      <stop offset="50%" style="stop-color:#1e40af;stop-opacity:0.9" />
      <stop offset="100%" style="stop-color:#3b82f6;stop-opacity:0.8" />
    </linearGradient>
    
    <linearGradient id="overlayGradient1" x1="0%" y1="0%" x2="100%" y2="0%">
      <stop offset="0%" style="stop-color:#000000;stop-opacity:0.4" />
      <stop offset="100%" style="stop-color:#000000;stop-opacity:0.1" />
    </linearGradient>
    
    <!-- 패턴 정의 -->
    <pattern id="gridPattern1" patternUnits="userSpaceOnUse" width="100" height="100">
      <path d="M 100 0 L 0 0 0 100" fill="none" stroke="white" stroke-width="1" opacity="0.1"/>
    </pattern>
    
    <!-- 원형 패턴 -->
    <pattern id="circlePattern1" patternUnits="userSpaceOnUse" width="200" height="200">
      <circle cx="100" cy="100" r="3" fill="white" opacity="0.15"/>
    </pattern>
  </defs>
  
  <!-- 메인 배경 -->
  <rect width="1920" height="1080" fill="url(#heroGradient1)"/>
  
  <!-- 패턴 오버레이 -->
  <rect width="1920" height="1080" fill="url(#gridPattern1)"/>
  <rect width="1920" height="1080" fill="url(#circlePattern1)"/>
  
  <!-- 장식 요소들 -->
  <g opacity="0.3">
    <!-- 큰 원형 장식 -->
    <circle cx="1600" cy="200" r="150" fill="none" stroke="white" stroke-width="2" opacity="0.2"/>
    <circle cx="1600" cy="200" r="100" fill="none" stroke="white" stroke-width="1" opacity="0.3"/>
    <circle cx="1600" cy="200" r="50" fill="white" opacity="0.1"/>
    
    <!-- 작은 원형 장식들 -->
    <circle cx="300" cy="800" r="80" fill="none" stroke="white" stroke-width="1" opacity="0.25"/>
    <circle cx="1200" cy="900" r="60" fill="white" opacity="0.08"/>
    <circle cx="1700" cy="700" r="40" fill="none" stroke="white" stroke-width="1" opacity="0.2"/>
  </g>
  
  <!-- 가전제품 실루엣들 -->
  <g transform="translate(1400, 300)" opacity="0.15">
    <!-- 세탁기 실루엣 -->
    <rect x="0" y="0" width="120" height="150" rx="10" fill="white" opacity="0.3"/>
    <rect x="10" y="10" width="100" height="80" rx="5" fill="none" stroke="white" stroke-width="2"/>
    <circle cx="60" cy="50" r="25" fill="none" stroke="white" stroke-width="2"/>
    <rect x="10" y="100" width="100" height="40" fill="white" opacity="0.2"/>
    
    <!-- 에어컨 실루엣 -->
    <rect x="150" y="20" width="100" height="60" rx="8" fill="white" opacity="0.3"/>
    <rect x="160" y="30" width="80" height="8" fill="white" opacity="0.5"/>
    <rect x="160" y="45" width="80" height="8" fill="white" opacity="0.5"/>
    <rect x="160" y="60" width="80" height="8" fill="white" opacity="0.5"/>
  </g>
  
  <!-- 교육 및 전문성을 나타내는 요소들 -->
  <g transform="translate(200, 150)" opacity="0.2">
    <!-- 책/교육 심볼 -->
    <rect x="0" y="0" width="80" height="100" rx="5" fill="white" opacity="0.4"/>
    <rect x="5" y="15" width="70" height="3" fill="none" stroke="white" stroke-width="1"/>
    <rect x="5" y="25" width="70" height="3" fill="none" stroke="white" stroke-width="1"/>
    <rect x="5" y="35" width="70" height="3" fill="none" stroke="white" stroke-width="1"/>
    <rect x="5" y="45" width="70" height="3" fill="none" stroke="white" stroke-width="1"/>
    
    <!-- 인증서 심볼 -->
    <rect x="100" y="10" width="60" height="80" rx="3" fill="white" opacity="0.3"/>
    <circle cx="130" cy="35" r="8" fill="none" stroke="white" stroke-width="2"/>
    <path d="M125,35 L128,38 L135,31" stroke="white" stroke-width="2" fill="none"/>
  </g>
  
  <!-- 품질 관리 도구들 -->
  <g transform="translate(1500, 600)" opacity="0.18">
    <!-- 체크리스트 -->
    <rect x="0" y="0" width="70" height="90" rx="3" fill="white" opacity="0.4"/>
    <circle cx="15" cy="20" r="3" fill="white"/>
    <rect x="25" y="17" width="35" height="2" fill="white"/>
    <circle cx="15" cy="35" r="3" fill="white"/>
    <rect x="25" y="32" width="35" height="2" fill="white"/>
    <circle cx="15" cy="50" r="3" fill="white"/>
    <rect x="25" y="47" width="35" height="2" fill="white"/>
    
    <!-- 도구 아이콘 -->
    <rect x="90" y="10" width="3" height="70" fill="white" opacity="0.5"/>
    <circle cx="91.5" cy="5" r="5" fill="white" opacity="0.4"/>
  </g>
  
  <!-- 전문성을 나타내는 기하학적 요소들 -->
  <g opacity="0.12">
    <!-- 육각형 패턴 -->
    <g transform="translate(800, 200)">
      <polygon points="0,20 17,10 34,20 34,40 17,50 0,40" fill="none" stroke="white" stroke-width="1"/>
      <polygon points="34,0 51,10 68,0 68,20 51,30 34,20" fill="none" stroke="white" stroke-width="1"/>
      <polygon points="68,20 85,10 102,20 102,40 85,50 68,40" fill="none" stroke="white" stroke-width="1"/>
    </g>
    
    <!-- 삼각형 패턴 -->
    <g transform="translate(500, 700)">
      <polygon points="0,0 30,0 15,26" fill="white" opacity="0.1"/>
      <polygon points="30,0 60,0 45,26" fill="white" opacity="0.08"/>
      <polygon points="60,0 90,0 75,26" fill="white" opacity="0.06"/>
    </g>
  </g>
  
  <!-- 하단 물결 장식 -->
  <path d="M0,900 Q480,850 960,900 T1920,900 L1920,1080 L0,1080 Z" fill="white" opacity="0.05"/>
  
  <!-- 상단 구름 형태 장식 -->
  <path d="M0,0 L1920,0 L1920,200 Q1440,250 960,200 T0,200 Z" fill="white" opacity="0.03"/>
  
  <!-- 중앙 포커스 영역 밝게 하기 -->
  <ellipse cx="960" cy="540" rx="600" ry="300" fill="white" opacity="0.05"/>
  
  <!-- 최종 오버레이 -->
  <rect width="1920" height="1080" fill="url(#overlayGradient1)"/>
</svg>