<svg width="1920" height="1080" viewBox="0 0 1920 1080" xmlns="http://www.w3.org/2000/svg">
  <!-- 배경 그라디언트 -->
  <defs>
    <linearGradient id="heroGradient3" x1="0%" y1="0%" x2="100%" y2="100%">
      <stop offset="0%" style="stop-color:#7c3aed;stop-opacity:1" />
      <stop offset="50%" style="stop-color:#8b5cf6;stop-opacity:0.9" />
      <stop offset="100%" style="stop-color:#a78bfa;stop-opacity:0.8" />
    </linearGradient>
    
    <linearGradient id="overlayGradient3" x1="50%" y1="0%" x2="50%" y2="100%">
      <stop offset="0%" style="stop-color:#000000;stop-opacity:0.2" />
      <stop offset="50%" style="stop-color:#000000;stop-opacity:0.05" />
      <stop offset="100%" style="stop-color:#000000;stop-opacity:0.3" />
    </linearGradient>
    
    <!-- 교육 패턴 -->
    <pattern id="educationPattern" patternUnits="userSpaceOnUse" width="120" height="120">
      <rect width="120" height="120" fill="none"/>
      <rect x="40" y="30" width="40" height="60" rx="3" fill="white" opacity="0.08"/>
      <rect x="45" y="40" width="30" height="2" fill="white" opacity="0.12"/>
      <rect x="45" y="50" width="25" height="2" fill="white" opacity="0.12"/>
      <rect x="45" y="60" width="30" height="2" fill="white" opacity="0.12"/>
    </pattern>
    
    <!-- 인증서 패턴 -->
    <pattern id="certificatePattern" patternUnits="userSpaceOnUse" width="200" height="200">
      <rect width="200" height="200" fill="none"/>
      <rect x="60" y="50" width="80" height="100" rx="5" fill="white" opacity="0.06"/>
      <circle cx="100" cy="85" r="10" fill="white" opacity="0.1"/>
      <path d="M95,85 L98,88 L105,81" stroke="white" stroke-width="1" fill="none" opacity="0.15"/>
    </pattern>
  </defs>
  
  <!-- 메인 배경 -->
  <rect width="1920" height="1080" fill="url(#heroGradient3)"/>
  
  <!-- 패턴 오버레이 -->
  <rect width="1920" height="1080" fill="url(#educationPattern)"/>
  <rect width="1920" height="1080" fill="url(#certificatePattern)"/>
  
  <!-- 교육 프로그램 시각화 -->
  <g transform="translate(1300, 200)" opacity="0.25">
    <!-- 강의실 레이아웃 -->
    <rect x="0" y="0" width="300" height="200" rx="15" fill="white" opacity="0.2"/>
    
    <!-- 강사 위치 -->
    <rect x="20" y="20" width="260" height="60" rx="8" fill="white" opacity="0.3"/>
    <rect x="30" y="30" width="80" height="40" rx="5" fill="white" opacity="0.4"/>
    <text x="70" y="52" font-family="Arial" font-size="12" fill="white" opacity="0.8" text-anchor="middle">강사</text>
    
    <!-- 실습 장비 -->
    <rect x="130" y="35" width="40" height="30" rx="3" fill="white" opacity="0.35"/>
    <rect x="135" y="40" width="30" height="4" fill="white" opacity="0.5"/>
    <rect x="135" y="48" width="30" height="4" fill="white" opacity="0.5"/>
    <rect x="135" y="56" width="30" height="4" fill="white" opacity="0.5"/>
    
    <!-- 학생 자리 -->
    <g opacity="0.4">
      <rect x="40" y="100" width="35" height="25" rx="3" fill="white"/>
      <rect x="90" y="100" width="35" height="25" rx="3" fill="white"/>
      <rect x="140" y="100" width="35" height="25" rx="3" fill="white"/>
      <rect x="190" y="100" width="35" height="25" rx="3" fill="white"/>
      
      <rect x="40" y="140" width="35" height="25" rx="3" fill="white"/>
      <rect x="90" y="140" width="35" height="25" rx="3" fill="white"/>
      <rect x="140" y="140" width="35" height="25" rx="3" fill="white"/>
      <rect x="190" y="140" width="35" height="25" rx="3" fill="white"/>
    </g>
    
    <!-- 칠판/스크린 -->
    <rect x="200" y="30" width="80" height="50" rx="5" fill="white" opacity="0.3"/>
    <rect x="210" y="38" width="60" height="3" fill="white" opacity="0.6"/>
    <rect x="210" y="48" width="45" height="3" fill="white" opacity="0.6"/>
    <rect x="210" y="58" width="55" height="3" fill="white" opacity="0.6"/>
    <rect x="210" y="68" width="40" height="3" fill="white" opacity="0.6"/>
  </g>
  
  <!-- 자격증 및 인증 시스템 -->
  <g transform="translate(200, 300)" opacity="0.22">
    <!-- 자격증서 스택 -->
    <rect x="0" y="0" width="120" height="160" rx="8" fill="white" opacity="0.3"/>
    <rect x="5" y="5" width="120" height="160" rx="8" fill="white" opacity="0.25"/>
    <rect x="10" y="10" width="120" height="160" rx="8" fill="white" opacity="0.35"/>
    
    <!-- 메인 자격증 -->
    <rect x="20" y="30" width="100" height="130" rx="6" fill="white" opacity="0.4"/>
    
    <!-- 로고 영역 -->
    <circle cx="70" cy="60" r="15" fill="white" opacity="0.6"/>
    <text x="70" y="65" font-family="Arial" font-size="10" fill="#7c3aed" text-anchor="middle">K</text>
    
    <!-- 자격증명 -->
    <rect x="30" y="85" width="80" height="4" fill="white" opacity="0.8"/>
    <rect x="30" y="95" width="60" height="3" fill="white" opacity="0.6"/>
    <rect x="30" y="105" width="70" height="3" fill="white" opacity="0.6"/>
    
    <!-- 인증 도장/서명 영역 -->
    <circle cx="45" cy="135" r="8" fill="white" opacity="0.5"/>
    <rect x="65" y="130" width="35" height="10" fill="white" opacity="0.4"/>
    
    <!-- 인증 번호 -->
    <rect x="30" y="150" width="50" height="2" fill="white" opacity="0.5"/>
  </g>
  
  <!-- 학습 진행도 및 성과 측정 -->
  <g transform="translate(800, 600)" opacity="0.2">
    <!-- 진행률 바 -->
    <rect x="0" y="0" width="300" height="20" rx="10" fill="white" opacity="0.2"/>
    <rect x="5" y="5" width="200" height="10" rx="5" fill="white" opacity="0.6"/>
    <text x="310" y="15" font-family="Arial" font-size="12" fill="white" opacity="0.8">67%</text>
    
    <!-- 성취 배지들 -->
    <circle cx="50" cy="60" r="20" fill="white" opacity="0.4"/>
    <path d="M45,55 L48,62 L55,60 L50,67 L52,75 L45,70 L38,75 L40,67 L35,60 L42,62 Z" fill="white" opacity="0.6"/>
    
    <circle cx="110" cy="60" r="20" fill="white" opacity="0.35"/>
    <rect x="102" y="52" width="16" height="16" rx="2" fill="white" opacity="0.5"/>
    <path d="M107,57 L110,60 L115,55" stroke="#7c3aed" stroke-width="2" fill="none"/>
    
    <circle cx="170" cy="60" r="20" fill="white" opacity="0.3"/>
    <polygon points="170,50 175,60 185,60 177,67 180,77 170,72 160,77 163,67 155,60 165,60" fill="white" opacity="0.5"/>
    
    <!-- 학습 통계 -->
    <rect x="0" y="100" width="250" height="80" rx="8" fill="white" opacity="0.15"/>
    <text x="20" y="120" font-family="Arial" font-size="10" fill="white" opacity="0.7">학습 시간: 24h</text>
    <text x="20" y="135" font-family="Arial" font-size="10" fill="white" opacity="0.7">완료 과정: 3/4</text>
    <text x="20" y="150" font-family="Arial" font-size="10" fill="white" opacity="0.7">평균 점수: 87점</text>
    <text x="20" y="165" font-family="Arial" font-size="10" fill="white" opacity="0.7">수료 예정: 2주</text>
  </g>
  
  <!-- 전문 교육 과정 아이콘들 -->
  <g transform="translate(1500, 600)" opacity="0.18">
    <!-- 이론 교육 -->
    <rect x="0" y="0" width="60" height="80" rx="5" fill="white" opacity="0.4"/>
    <rect x="10" y="15" width="40" height="3" fill="white" opacity="0.6"/>
    <rect x="10" y="25" width="35" height="3" fill="white" opacity="0.6"/>
    <rect x="10" y="35" width="40" height="3" fill="white" opacity="0.6"/>
    <rect x="10" y="45" width="30" height="3" fill="white" opacity="0.6"/>
    <rect x="10" y="55" width="38" height="3" fill="white" opacity="0.6"/>
    
    <!-- 실습 교육 -->
    <rect x="80" y="10" width="50" height="60" rx="5" fill="white" opacity="0.35"/>
    <rect x="90" y="20" width="30" height="20" rx="3" fill="white" opacity="0.5"/>
    <rect x="95" y="25" width="20" height="2" fill="#7c3aed" opacity="0.8"/>
    <rect x="95" y="30" width="20" height="2" fill="#7c3aed" opacity="0.8"/>
    <rect x="95" y="35" width="20" height="2" fill="#7c3aed" opacity="0.8"/>
    
    <!-- 도구 아이콘 -->
    <rect x="85" y="50" width="3" height="15" fill="white" opacity="0.6"/>
    <circle cx="86.5" cy="47" r="3" fill="white" opacity="0.5"/>
    
    <!-- 평가/시험 -->
    <rect x="150" y="5" width="50" height="70" rx="5" fill="white" opacity="0.3"/>
    <circle cx="175" cy="25" r="8" fill="white" opacity="0.5"/>
    <path d="M170,25 L173,28 L180,21" stroke="#7c3aed" stroke-width="2" fill="none"/>
    <rect x="160" y="40" width="30" height="2" fill="white" opacity="0.6"/>
    <rect x="160" y="48" width="25" height="2" fill="white" opacity="0.6"/>
    <rect x="160" y="56" width="28" height="2" fill="white" opacity="0.6"/>
  </g>
  
  <!-- 네트워크 학습 커뮤니티 -->
  <g transform="translate(300, 150)" opacity="0.15">
    <!-- 사용자 노드들 -->
    <circle cx="100" cy="100" r="25" fill="white" opacity="0.4"/>
    <circle cx="200" cy="50" r="20" fill="white" opacity="0.35"/>
    <circle cx="300" cy="150" r="22" fill="white" opacity="0.38"/>
    <circle cx="150" cy="200" r="18" fill="white" opacity="0.32"/>
    <circle cx="50" cy="180" r="24" fill="white" opacity="0.36"/>
    
    <!-- 연결선들 -->
    <path d="M100,100 L200,50" stroke="white" stroke-width="2" opacity="0.3"/>
    <path d="M100,100 L150,200" stroke="white" stroke-width="2" opacity="0.3"/>
    <path d="M100,100 L50,180" stroke="white" stroke-width="2" opacity="0.3"/>
    <path d="M200,50 L300,150" stroke="white" stroke-width="2" opacity="0.3"/>
    <path d="M150,200 L300,150" stroke="white" stroke-width="2" opacity="0.3"/>
    
    <!-- 사용자 아이콘들 -->
    <text x="100" y="105" font-family="Arial" font-size="14" fill="#7c3aed" text-anchor="middle">👤</text>
    <text x="200" y="55" font-family="Arial" font-size="12" fill="#7c3aed" text-anchor="middle">👤</text>
    <text x="300" y="155" font-family="Arial" font-size="13" fill="#7c3aed" text-anchor="middle">👤</text>
    <text x="150" y="205" font-family="Arial" font-size="11" fill="#7c3aed" text-anchor="middle">👤</text>
    <text x="50" y="185" font-family="Arial" font-size="13" fill="#7c3aed" text-anchor="middle">👤</text>
  </g>
  
  <!-- 성장 곡선 -->
  <g transform="translate(500, 800)" opacity="0.2">
    <path d="M0,100 Q100,80 200,60 T400,20" stroke="white" stroke-width="3" fill="none"/>
    <circle cx="0" cy="100" r="4" fill="white"/>
    <circle cx="100" cy="80" r="4" fill="white"/>
    <circle cx="200" cy="60" r="4" fill="white"/>
    <circle cx="300" cy="40" r="4" fill="white"/>
    <circle cx="400" cy="20" r="4" fill="white"/>
    
    <!-- 성장 단계 라벨 -->
    <text x="0" y="120" font-family="Arial" font-size="10" fill="white" opacity="0.7" text-anchor="middle">기초</text>
    <text x="100" y="100" font-family="Arial" font-size="10" fill="white" opacity="0.7" text-anchor="middle">실습</text>
    <text x="200" y="80" font-family="Arial" font-size="10" fill="white" opacity="0.7" text-anchor="middle">숙련</text>
    <text x="300" y="60" font-family="Arial" font-size="10" fill="white" opacity="0.7" text-anchor="middle">전문</text>
    <text x="400" y="40" font-family="Arial" font-size="10" fill="white" opacity="0.7" text-anchor="middle">마스터</text>
  </g>
  
  <!-- 장식적 기하학 요소들 -->
  <g opacity="0.08">
    <!-- 육각형 클러스터 -->
    <g transform="translate(1600, 300)">
      <polygon points="0,20 17,10 34,20 34,40 17,50 0,40" fill="white"/>
      <polygon points="34,0 51,10 68,0 68,20 51,30 34,20" fill="white"/>
      <polygon points="0,60 17,50 34,60 34,80 17,90 0,80" fill="white"/>
    </g>
    
    <!-- 원형 패턴 -->
    <circle cx="1200" cy="800" r="80" fill="white" opacity="0.03"/>
    <circle cx="1200" cy="800" r="60" fill="white" opacity="0.04"/>
    <circle cx="1200" cy="800" r="40" fill="white" opacity="0.05"/>
    <circle cx="1200" cy="800" r="20" fill="white" opacity="0.06"/>
  </g>
  
  <!-- 상단과 하단 장식 -->
  <path d="M0,0 L1920,0 L1920,120 Q960,170 0,120 Z" fill="white" opacity="0.03"/>
  <path d="M0,1080 L1920,1080 L1920,960 Q1440,910 960,960 T0,960 Z" fill="white" opacity="0.05"/>
  
  <!-- 중앙 포커스 영역 -->
  <ellipse cx="960" cy="540" rx="600" ry="200" fill="white" opacity="0.04"/>
  
  <!-- 최종 오버레이 -->
  <rect width="1920" height="1080" fill="url(#overlayGradient3)"/>
</svg>